<svg width="11" height="11" viewBox="0 0 11 11" fill="none" xmlns="http://www.w3.org/2000/svg">
<g clip-path="url(#clip0_1_1865)">
<path d="M5.80173 2.65564L10.8755 7.74347C11.0416 7.91016 11.0413 8.18005 10.8746 8.34647C10.7079 8.51275 10.4379 8.51232 10.2716 8.34561L5.49986 3.56062L0.728113 8.34578C0.561825 8.51247 0.291961 8.5129 0.125242 8.34664C0.0416689 8.26321 -0.000119209 8.15392 -0.000119209 8.04463C-0.000119209 7.93562 0.0413895 7.82676 0.124383 7.74349L5.19801 2.65564C5.27788 2.57535 5.38659 2.5303 5.49986 2.5303C5.61312 2.5303 5.72171 2.57548 5.80173 2.65564Z" fill="white"/>
</g>
<defs>
<clipPath id="clip0_1_1865">
<rect width="11" height="11" fill="white" transform="matrix(0 -1 -1 0 11 11)"/>
</clipPath>
</defs>
</svg>
